<svg width="64" height="64" viewBox="0 0 64 64" fill="none" xmlns="http://www.w3.org/2000/svg">
<rect width="64" height="64" fill="black"/>
<path d="M16 9.33331C16 7.12417 17.7909 5.33331 20 5.33331H48V58.6666H20C17.7909 58.6666 16 56.8758 16 54.6666V9.33331Z" fill="url(#paint0_linear_1_605)"/>
<path opacity="0.5" d="M48 5.33331H53.3333V10.6666H48V5.33331Z" fill="white"/>
<path opacity="0.5" d="M48 26.6667H53.3333V32H48V26.6667Z" fill="white"/>
<path opacity="0.5" d="M53.3333 10.6667H58.6667V16H53.3333V10.6667Z" fill="white"/>
<path opacity="0.5" d="M53.3333 32H58.6667V37.3333H53.3333V32Z" fill="white"/>
<path opacity="0.5" d="M48 16H53.3333V21.3333H48V16Z" fill="white"/>
<path opacity="0.5" d="M48 37.3333H53.3333V42.6666H48V37.3333Z" fill="white"/>
<path opacity="0.5" d="M48 48H53.3333V53.3333H48V48Z" fill="white"/>
<path d="M42.6667 48H48V53.3333H42.6667V48Z" fill="black"/>
<path d="M42.6667 37.3333H48V42.6666H42.6667V37.3333Z" fill="black"/>
<path d="M42.6667 26.6667H48V32H42.6667V26.6667Z" fill="black"/>
<path d="M42.6667 16H48V21.3333H42.6667V16Z" fill="black"/>
<path d="M42.6667 5.33331H48V10.6666H42.6667V5.33331Z" fill="black"/>
<path opacity="0.5" d="M53.3333 21.3333H58.6667V26.6666H53.3333V21.3333Z" fill="white"/>
<path opacity="0.5" d="M53.3333 42.6667H58.6667V48H53.3333V42.6667Z" fill="white"/>
<path opacity="0.5" d="M53.3333 53.3333H58.6667V58.6667H53.3333V53.3333Z" fill="white"/>
<ellipse cx="21.3333" cy="42.6667" rx="16" ry="16" fill="url(#paint1_linear_1_605)"/>
<path fill-rule="evenodd" clip-rule="evenodd" d="M29.7009 39.4792L19.5549 49.6252L13.8534 43.9236L16.3675 41.4095L19.5549 44.5968L27.1867 36.965L29.7009 39.4792Z" fill="white"/>
<defs>
<linearGradient id="paint0_linear_1_605" x1="32" y1="5.33331" x2="32" y2="58.6666" gradientUnits="userSpaceOnUse">
<stop stop-color="white"/>
<stop offset="1" stop-color="white" stop-opacity="0"/>
</linearGradient>
<linearGradient id="paint1_linear_1_605" x1="21.3333" y1="26.6667" x2="21.3333" y2="58.6667" gradientUnits="userSpaceOnUse">
<stop stop-color="#F0AF1B"/>
<stop offset="1"/>
</linearGradient>
</defs>
</svg>
