<svg width="64" height="64" viewBox="0 0 64 64" fill="none" xmlns="http://www.w3.org/2000/svg">
<rect width="64" height="64" fill="black"/>
<path opacity="0.8" d="M5.33331 6.33333C5.33331 5.78104 5.78103 5.33333 6.33331 5.33333H52.3333C52.8856 5.33333 53.3333 5.78104 53.3333 6.33333V57.6667C53.3333 58.2189 52.8856 58.6667 52.3333 58.6667H6.33331C5.78103 58.6667 5.33331 58.2189 5.33331 57.6667V6.33333Z" fill="url(#paint0_linear_1_586)"/>
<path opacity="0.8" d="M10.667 25.3335C10.667 24.7812 11.1147 24.3335 11.667 24.3335H47.0003C47.5526 24.3335 48.0003 24.7812 48.0003 25.3335V26.0002C48.0003 26.5524 47.5526 27.0002 47.0003 27.0002H11.667C11.1147 27.0002 10.667 26.5524 10.667 26.0002V25.3335Z" fill="black"/>
<path opacity="0.8" d="M10.6667 35.6667C10.6667 35.1144 11.1144 34.6667 11.6667 34.6667H47C47.5523 34.6667 48 35.1144 48 35.6667V36.3333C48 36.8856 47.5523 37.3333 47 37.3333H11.6667C11.1144 37.3333 10.6667 36.8856 10.6667 36.3333V35.6667Z" fill="black"/>
<path opacity="0.8" d="M10.667 46C10.667 45.4477 11.1147 45 11.667 45H47.0003C47.5526 45 48.0003 45.4477 48.0003 46V46.6667C48.0003 47.219 47.5526 47.6667 47.0003 47.6667H11.667C11.1147 47.6667 10.667 47.219 10.667 46.6667V46Z" fill="black"/>
<path opacity="0.5" d="M10.6667 11.6667C10.6667 11.1144 11.1144 10.6667 11.6667 10.6667H15C15.5523 10.6667 16 11.1144 16 11.6667V15C16 15.5523 15.5523 16 15 16H11.6667C11.1144 16 10.6667 15.5523 10.6667 15V11.6667Z" fill="black"/>
<path opacity="0.5" d="M18.6667 11.6667C18.6667 11.1144 19.1144 10.6667 19.6667 10.6667H23C23.5523 10.6667 24 11.1144 24 11.6667V15C24 15.5523 23.5523 16 23 16H19.6667C19.1144 16 18.6667 15.5523 18.6667 15V11.6667Z" fill="black"/>
<path opacity="0.5" d="M26.6667 11.6667C26.6667 11.1144 27.1144 10.6667 27.6667 10.6667H47C47.5523 10.6667 48 11.1144 48 11.6667V15C48 15.5523 47.5523 16 47 16H27.6667C27.1144 16 26.6667 15.5523 26.6667 15V11.6667Z" fill="black"/>
<path d="M26.6667 32.001L27.7185 32.0009C33.7254 32.0003 39.3347 28.998 42.6667 24C45.9987 28.998 51.6079 32.0003 57.6148 32.0009L58.6667 32.001C58.6667 41.9969 53.6708 51.3313 45.3535 56.8756L42.6667 58.6667L39.9799 56.8756C31.6626 51.3313 26.6667 41.9969 26.6667 32.001Z" fill="url(#paint1_linear_1_586)"/>
<defs>
<linearGradient id="paint0_linear_1_586" x1="29.3333" y1="5.33333" x2="29.3333" y2="58.6667" gradientUnits="userSpaceOnUse">
<stop stop-color="white"/>
<stop offset="1" stop-color="white" stop-opacity="0"/>
</linearGradient>
<linearGradient id="paint1_linear_1_586" x1="42.6667" y1="24" x2="42.6667" y2="58.6667" gradientUnits="userSpaceOnUse">
<stop stop-color="#F0AF1B"/>
<stop offset="1"/>
</linearGradient>
</defs>
</svg>
