<svg width="24" height="25" viewBox="0 0 24 25" fill="none" xmlns="http://www.w3.org/2000/svg">
<g clip-path="url(#clip0_1_1783)">
<path d="M12 0.5C5.373 0.5 0 5.873 0 12.5C0 19.127 5.373 24.5 12 24.5C18.627 24.5 24 19.127 24 12.5C24 5.873 18.627 0.5 12 0.5ZM17.894 8.721L15.924 18.001C15.779 18.659 15.387 18.819 14.84 18.509L11.84 16.299L10.394 17.693C10.3231 17.7847 10.2322 17.859 10.1282 17.9101C10.0242 17.9613 9.90989 17.9879 9.794 17.988H9.789L10.002 14.934L15.562 9.912C15.802 9.699 15.508 9.578 15.189 9.791L8.32 14.117L5.36 13.193C4.72 12.99 4.702 12.553 5.495 12.239L17.061 7.781C17.599 7.585 18.067 7.909 17.893 8.722L17.894 8.721Z" fill="white" fill-opacity="0.6"/>
</g>
<defs>
<clipPath id="clip0_1_1783">
<rect width="24" height="24" fill="white" transform="translate(0 0.5)"/>
</clipPath>
</defs>
</svg>
