<svg width="24" height="25" viewBox="0 0 24 25" fill="none" xmlns="http://www.w3.org/2000/svg">
<path d="M23.6432 5.43695C22.8082 5.80695 21.9112 6.05696 20.9682 6.16996C21.9412 5.58775 22.6691 4.67142 23.0162 3.59195C22.102 4.13494 21.1015 4.51715 20.0582 4.72196C19.3566 3.97282 18.4273 3.47628 17.4145 3.30943C16.4018 3.14258 15.3623 3.31475 14.4574 3.79921C13.5526 4.28367 12.833 5.05332 12.4103 5.98866C11.9877 6.924 11.8857 7.9727 12.1202 8.97195C10.2679 8.87895 8.45582 8.3975 6.80162 7.55886C5.14742 6.72022 3.68804 5.54312 2.51819 4.10396C2.11819 4.79396 1.88819 5.59396 1.88819 6.44596C1.88775 7.21295 2.07663 7.9682 2.43807 8.64469C2.79952 9.32118 3.32236 9.89799 3.9602 10.324C3.22047 10.3004 2.49707 10.1005 1.85019 9.74095V9.80095C1.85012 10.8767 2.22223 11.9193 2.90338 12.752C3.58453 13.5846 4.53277 14.1559 5.5872 14.369C4.90098 14.5547 4.18153 14.582 3.4832 14.449C3.78069 15.3746 4.36019 16.184 5.14056 16.7639C5.92093 17.3438 6.86311 17.6651 7.8352 17.683C6.18503 18.9784 4.14708 19.681 2.04919 19.678C1.67758 19.6781 1.30627 19.6564 0.937195 19.613C3.06667 20.9821 5.54554 21.7088 8.0772 21.706C16.6472 21.706 21.3322 14.608 21.3322 8.45195C21.3322 8.25196 21.3272 8.04995 21.3182 7.84995C22.2295 7.19093 23.0161 6.37485 23.6412 5.43995L23.6432 5.43695Z" fill="white" fill-opacity="0.6"/>
</svg>
