<svg width="64" height="64" viewBox="0 0 64 64" fill="none" xmlns="http://www.w3.org/2000/svg">
<rect width="64" height="64" fill="black"/>
<path opacity="0.6" d="M13.3333 11.3333C13.3333 8.01962 16.0196 5.33333 19.3333 5.33333H47.3333C50.6471 5.33333 53.3333 8.01962 53.3333 11.3333V47.3333C53.3333 50.647 50.6471 53.3333 47.3333 53.3333H19.3333C16.0196 53.3333 13.3333 50.647 13.3333 47.3333V11.3333Z" fill="url(#paint0_linear_1_652)"/>
<path opacity="0.6" d="M18.6667 17C18.6667 16.4477 19.1144 16 19.6667 16H47C47.5523 16 48 16.4477 48 17V57.6667C48 58.219 47.5523 58.6667 47 58.6667H19.6667C19.1144 58.6667 18.6667 58.219 18.6667 57.6667V17Z" fill="url(#paint1_linear_1_652)"/>
<path d="M50.6667 40V34.6667C50.6667 31.7211 48.2789 29.3333 45.3333 29.3333V29.3333C42.3878 29.3333 40 31.7211 40 34.6667V40" stroke="black" stroke-width="3"/>
<path d="M5.33334 11.6667C5.33334 11.1144 5.78106 10.6667 6.33334 10.6667H36.3333C36.8856 10.6667 37.3333 11.1144 37.3333 11.6667V25.6667C37.3333 26.219 36.8856 26.6667 36.3333 26.6667H6.33334C5.78106 26.6667 5.33334 26.219 5.33334 25.6667V11.6667Z" fill="white"/>
<path d="M32 44C32 41.7909 33.7909 40 36 40H55C57.2091 40 59 41.7909 59 44V55C59 57.2091 57.2091 59 55 59H36C33.7909 59 32 57.2091 32 55V44Z" fill="url(#paint2_linear_1_652)"/>
<path d="M10.6667 17C10.6667 16.4477 11.1144 16 11.6667 16H15C15.5523 16 16 16.4477 16 17V20.3333C16 20.8856 15.5523 21.3333 15 21.3333H11.6667C11.1144 21.3333 10.6667 20.8856 10.6667 20.3333V17Z" fill="black"/>
<path d="M18.6667 17C18.6667 16.4477 19.1144 16 19.6667 16H23C23.5523 16 24 16.4477 24 17V20.3333C24 20.8856 23.5523 21.3333 23 21.3333H19.6667C19.1144 21.3333 18.6667 20.8856 18.6667 20.3333V17Z" fill="black"/>
<path d="M26.6667 17C26.6667 16.4477 27.1144 16 27.6667 16H31C31.5523 16 32 16.4477 32 17V20.3333C32 20.8856 31.5523 21.3333 31 21.3333H27.6667C27.1144 21.3333 26.6667 20.8856 26.6667 20.3333V17Z" fill="black"/>
<defs>
<linearGradient id="paint0_linear_1_652" x1="33.3333" y1="5.33333" x2="33.3333" y2="53.3333" gradientUnits="userSpaceOnUse">
<stop stop-color="white"/>
<stop offset="1" stop-color="white" stop-opacity="0"/>
</linearGradient>
<linearGradient id="paint1_linear_1_652" x1="33.3333" y1="16" x2="33.3333" y2="58.6667" gradientUnits="userSpaceOnUse">
<stop stop-color="white"/>
<stop offset="1" stop-color="white" stop-opacity="0"/>
</linearGradient>
<linearGradient id="paint2_linear_1_652" x1="45.5" y1="40" x2="45.5" y2="59" gradientUnits="userSpaceOnUse">
<stop stop-color="#F0AF1B"/>
<stop offset="1"/>
</linearGradient>
</defs>
</svg>
